<mxfile host="app.diagrams.net" modified="2024-04-25T04:42:15.081Z" agent="Mozilla/5.0 (Windows NT 10.0; Win64; x64) AppleWebKit/537.36 (KHTML, like Gecko) Chrome/124.0.0.0 Safari/537.36 Edg/124.0.0.0" etag="2YTNnAZLUWE727a61FcT" version="24.3.0" type="google">
  <diagram name="Page-1" id="DcjXdEltLgWxhcHOEUOF">
    <mxGraphModel grid="1" page="1" gridSize="10" guides="1" tooltips="1" connect="1" arrows="1" fold="1" pageScale="1" pageWidth="827" pageHeight="1169" math="0" shadow="0">
      <root>
        <mxCell id="0" />
        <mxCell id="1" parent="0" />
        <mxCell id="_6zjsBJftD-I_7jk9RDa-1" value="MLD" style="text;html=1;align=center;verticalAlign=middle;whiteSpace=wrap;rounded=0;fillColor=#f8cecc;strokeColor=#b85450;" vertex="1" parent="1">
          <mxGeometry x="330" y="10" width="110" height="30" as="geometry" />
        </mxCell>
        <mxCell id="_6zjsBJftD-I_7jk9RDa-3" value="Roles(&lt;u&gt;id&lt;/u&gt;,name)" style="text;html=1;align=center;verticalAlign=middle;whiteSpace=wrap;rounded=0;" vertex="1" parent="1">
          <mxGeometry x="-200" y="100" width="560" height="30" as="geometry" />
        </mxCell>
        <mxCell id="_6zjsBJftD-I_7jk9RDa-4" value="Users(&lt;u&gt;id&lt;/u&gt;,#role_id,name,password)&lt;span style=&quot;color: rgba(0, 0, 0, 0); font-family: monospace; font-size: 0px; text-align: start; text-wrap: nowrap;&quot;&gt;%3CmxGraphModel%3E%3Croot%3E%3CmxCell%20id%3D%220%22%2F%3E%3CmxCell%20id%3D%221%22%20parent%3D%220%22%2F%3E%3CmxCell%20id%3D%222%22%20value%3D%22Roles(%26lt%3Bu%26gt%3Bid%26lt%3B%2Fu%26gt%3B%2Cname)%22%20style%3D%22text%3Bhtml%3D1%3Balign%3Dcenter%3BverticalAlign%3Dmiddle%3BwhiteSpace%3Dwrap%3Brounded%3D0%3B%22%20vertex%3D%221%22%20parent%3D%221%22%3E%3CmxGeometry%20x%3D%2250%22%20y%3D%2290%22%20width%3D%22560%22%20height%3D%2230%22%20as%3D%22geometry%22%2F%3E%3C%2FmxCell%3E%3C%2Froot%3E%3C%2FmxGraphModel%3E&lt;/span&gt;" style="text;html=1;align=center;verticalAlign=middle;whiteSpace=wrap;rounded=0;" vertex="1" parent="1">
          <mxGeometry x="-146" y="140" width="560" height="30" as="geometry" />
        </mxCell>
        <mxCell id="_6zjsBJftD-I_7jk9RDa-5" value="Admin(&lt;u&gt;id&lt;/u&gt;,#user_id,name)" style="text;html=1;align=center;verticalAlign=middle;whiteSpace=wrap;rounded=0;" vertex="1" parent="1">
          <mxGeometry x="-170" y="180" width="560" height="30" as="geometry" />
        </mxCell>
        <mxCell id="_6zjsBJftD-I_7jk9RDa-6" value="Customers(&lt;u&gt;id&lt;/u&gt;,#user_id,firstname,lastname,email,adress,phone)" style="text;html=1;align=center;verticalAlign=middle;whiteSpace=wrap;rounded=0;" vertex="1" parent="1">
          <mxGeometry x="-70" y="220" width="560" height="30" as="geometry" />
        </mxCell>
        <mxCell id="_6zjsBJftD-I_7jk9RDa-7" value="&lt;font color=&quot;#e30d0d&quot;&gt;Probleme de normalisation sur&amp;nbsp; l&#39;attribut adresse&lt;/font&gt;" style="text;html=1;align=center;verticalAlign=middle;whiteSpace=wrap;rounded=0;" vertex="1" parent="1">
          <mxGeometry x="40" y="260" width="310" height="30" as="geometry" />
        </mxCell>
        <mxCell id="_6zjsBJftD-I_7jk9RDa-8" value="Customers(&lt;u&gt;id&lt;/u&gt;,#user_id,firstname,lastname,email,country,city,zip_code,street,phone)" style="text;html=1;align=center;verticalAlign=middle;whiteSpace=wrap;rounded=0;" vertex="1" parent="1">
          <mxGeometry x="-20" y="300" width="560" height="30" as="geometry" />
        </mxCell>
        <mxCell id="_6zjsBJftD-I_7jk9RDa-9" value="Orders(&lt;u&gt;id&lt;/u&gt;,#customer_id,ordered_at,delivered_at,amount,#statu_id)" style="text;html=1;align=center;verticalAlign=middle;whiteSpace=wrap;rounded=0;" vertex="1" parent="1">
          <mxGeometry x="-60" y="340" width="560" height="30" as="geometry" />
        </mxCell>
        <mxCell id="_6zjsBJftD-I_7jk9RDa-10" value="Status(&lt;u&gt;id&lt;/u&gt;,name)" style="text;html=1;align=center;verticalAlign=middle;whiteSpace=wrap;rounded=0;" vertex="1" parent="1">
          <mxGeometry x="-200" y="380" width="560" height="30" as="geometry" />
        </mxCell>
        <mxCell id="_6zjsBJftD-I_7jk9RDa-11" value="Category(&lt;u&gt;id&lt;/u&gt;,name)" style="text;html=1;align=center;verticalAlign=middle;whiteSpace=wrap;rounded=0;" vertex="1" parent="1">
          <mxGeometry x="-190" y="420" width="560" height="30" as="geometry" />
        </mxCell>
        <mxCell id="_6zjsBJftD-I_7jk9RDa-12" value="Products(&lt;u&gt;id&lt;/u&gt;,name,description,price,stock)" style="text;html=1;align=center;verticalAlign=middle;whiteSpace=wrap;rounded=0;" vertex="1" parent="1">
          <mxGeometry x="-130" y="460" width="560" height="30" as="geometry" />
        </mxCell>
        <mxCell id="_6zjsBJftD-I_7jk9RDa-13" value="&lt;font color=&quot;#e30d0d&quot;&gt;La table de transition&lt;/font&gt;" style="text;html=1;align=center;verticalAlign=middle;whiteSpace=wrap;rounded=0;" vertex="1" parent="1">
          <mxGeometry x="40" y="490" width="310" height="30" as="geometry" />
        </mxCell>
        <mxCell id="_6zjsBJftD-I_7jk9RDa-14" value="Order_Product(&lt;u&gt;id&lt;/u&gt;,#order_id,#product_id,quantity)" style="text;html=1;align=center;verticalAlign=middle;whiteSpace=wrap;rounded=0;" vertex="1" parent="1">
          <mxGeometry x="-110" y="540" width="560" height="30" as="geometry" />
        </mxCell>
      </root>
    </mxGraphModel>
  </diagram>
</mxfile>
